<?xml version="1.0" encoding="utf-8"?>
<!-- Generator: Adobe Illustrator 22.1.0, SVG Export Plug-In . SVG Version: 6.00 Build 0)  -->
<svg version="1.1"
	 id="svg3127" xmlns:cc="http://creativecommons.org/ns#" xmlns:dc="http://purl.org/dc/elements/1.1/" xmlns:rdf="http://www.w3.org/1999/02/22-rdf-syntax-ns#" xmlns:svg="http://www.w3.org/2000/svg"
	 xmlns="http://www.w3.org/2000/svg" xmlns:xlink="http://www.w3.org/1999/xlink" x="0px" y="0px" viewBox="0 0 1024 340"
	 style="enable-background:new 0 0 1024 340;" xml:space="preserve">
<style type="text/css">
	.st0{fill:#1A171C;}
</style>
<path id="path3101" class="st0" d="M510.2,107.8c0.4-12.8-3.8-20.8-10.6-26c-6.8-5.3-16.5-7.1-27.1-7.1c-15.7,0-36,4.9-36,25.6
	c0,23.8,45.3,25.1,75,36.2c52.6,19.4,70.3,49.4,70.3,87c0,75.9-70.8,111.7-136.4,111.7c-69.5,0-132.2-33.1-128.4-113.4h90.3
	c0,17.2,3.8,27.8,11.4,35.7c8.1,7.1,19.1,7.9,34.3,7.9c18.2,0,40.7-9.7,40.7-30.5c0-22.9-30.9-26-72.9-40.6
	c-36.9-12.8-72.4-33.1-72.4-85.6c0-71.1,66.1-103.7,127.1-103.7c64.4,0,122.5,25.1,120.8,102.8L510.2,107.8z"/>
<path id="path3105" class="st0" d="M668.3,12.4h130.1l3.8,169.5h0.9l82.6-169.5h132.6l-64.4,315.1h-86.4l46.6-217.2h-0.8
	l-99.1,217.2H745l-11-217.2h-0.8l-41.5,217.2h-86.4L668.3,12.4z"/>
<path id="path3097" class="st0" d="M282.3,220.8c-16.1,79.4-72,114.3-148.3,114.3c-90.7,0-128.4-45.9-128.4-96.2
	c0-6.2,2.1-18.5,3.4-25.6L49.3,12.4h93.2l-34.3,172.1c-2.1,9.7-4.7,25.6-4.7,30.5c0,9.7-2.5,41.5,35.2,41.5
	c38.5,0,50.4-36.2,57.2-71.1l34.7-173h93.2L282.3,220.8z"/>
</svg>
