<?xml version="1.0" encoding="utf-8"?>
<!-- Generator: Adobe Illustrator 22.1.0, SVG Export Plug-In . SVG Version: 6.00 Build 0)  -->
<svg version="1.1" id="Calque_1" xmlns="http://www.w3.org/2000/svg" xmlns:xlink="http://www.w3.org/1999/xlink" x="0px" y="0px"
	 viewBox="0 0 535.9 168.9" style="enable-background:new 0 0 535.9 168.9;" xml:space="preserve">
<style type="text/css">
	.st0{clip-path:url(#SVGID_2_);}
</style>
<g>
	<defs>
		<rect id="SVGID_1_" x="7" y="5" width="520.2" height="161.1"/>
	</defs>
	<clipPath id="SVGID_2_">
		<use xlink:href="#SVGID_1_"  style="overflow:visible;"/>
	</clipPath>
	<path class="st0" d="M495.6,162.9h31.6V5h-31.6V162.9z M322.3,82.1c0.5-5.4,2-8.8,5.4-11.7c3.8-3.2,9.3-4.7,16-4.7
		c12.9,0,19.6,5.2,19.6,13.8c0,6.3-2.5,9.3-10.8,10.4l-5.2,0.7c-24.8,3.6-59.4,8.4-59.4,39c0,22.6,19.4,36.6,44.2,36.6
		c20.3,0,29.3-7.2,34.8-12.4h0.2l0.7,9.3h28.7v-0.7c-2-3.6-2.7-7.7-2.7-15.3V92.5c0-11.1-0.9-18.1-2.7-23.7
		c-6.1-19.2-26.4-25.7-46.5-25.7c-28.2,0-49.4,12-51,38.6L322.3,82.1z M338.8,143.5c-12,0-19.4-5.2-19.4-14.9c0-3.6,1.4-6.8,3.6-9
		c3.2-3.2,9.3-5.2,17.8-7.4l7-1.8c8.1-2,14-3.6,16.7-4.7v14.2c0,5.6-0.5,7.7-1.1,9.7C359.7,139.7,348.9,143.5,338.8,143.5
		 M242.8,85.5c-3.2-25.5-24.1-42.4-53.3-42.4c-36.8,0-59.6,25.5-59.6,61.4c0,36.8,21.2,61.4,59.4,61.4c30.2,0,49.9-17.2,54.4-42.4
		h-30.7c-2.7,9.3-8.6,18.1-23,18.1c-16.5,0-27.5-11.3-27.5-36.8c0-24.4,10.6-37.5,26.9-37.5c13.5,0,20.5,9,22.3,18.3H242.8z
		 M65.5,66.1c15.8,0,25.5,11.1,26,26H39.5C40.9,77.2,50.3,66.1,65.5,66.1 M89.8,129.1c-3.4,6.3-10.2,12.6-22.8,12.6
		c-14.4,0-26.4-8.6-28-28.9h84.2v-2.9c0-38.1-19-66.8-57.8-66.8C29.8,43.1,7,69.5,7,104.5c0,35,21.7,61.4,59.6,61.4
		c28,0,47.2-14.7,55.3-36.8H89.8z M101.6,5H63.2L47.8,34.1h28.2L101.6,5z"/>
</g>
</svg>
