<?xml version="1.0" encoding="utf-8"?>
<!-- Generator: Adobe Illustrator 22.1.0, SVG Export Plug-In . SVG Version: 6.00 Build 0)  -->
<svg version="1.1" id="Calque_1" xmlns="http://www.w3.org/2000/svg" xmlns:xlink="http://www.w3.org/1999/xlink" x="0px" y="0px"
	 viewBox="0 0 408 70.1" style="enable-background:new 0 0 408 70.1;" xml:space="preserve">
<style type="text/css">
	.st0{fill:#19181C;}
	.st1{fill:#1C1B20;}
	.st2{fill:#2DA9E0;}
</style>
<g>
	<path class="st0" d="M0,35c0.4-1.4,0.7-2.9,1.3-4.3c2.5-5.9,7.1-9,13.5-9.3c4.9-0.3,9.4,0.8,12.7,4.8c1,1.2,1.6,2.7,2.4,4.4
		c1.1-2.6,2.3-4.8,4.4-6.4c6.4-5,21.4-4.3,24.7,8.4c0.5,2,0.8,4.1,0.8,6.2c0,9.5-0.1,19.1,0,28.6c0,1.7-0.7,1.7-2,1.8
		c-1.5,0.1-1.8-0.4-1.8-1.8c0.1-9.3,0-18.7,0-28c0-4.4-0.9-8.5-4.5-11.6c-3.5-2.9-7.6-3.4-11.7-2.1c-4.3,1.4-6.7,4.6-7.7,9
		c-0.3,1.5-0.4,3-0.4,4.6c0,9.4,0,18.8,0.1,28.2c0,1.6-0.6,1.8-1.9,1.7c-1.2,0-2,0-1.9-1.7c0-9.8,0-19.5,0-29.2
		c0-4.4-1.2-8.3-5-11.1c-7.1-5.3-17.5-1.1-18.9,7.6c-0.3,1.6-0.4,3.2-0.4,4.8c0,9.1-0.1,18.2,0.1,27.3c0,1.9-0.5,2.5-2.3,2.2
		C1,69,0.5,69,0,69V35z"/>
	<path class="st0" d="M408,49.4c-0.9,2.9-1.5,5.8-3.1,8.5c-4.8,8.3-14.2,13.6-24.6,11.9c-10.6-1.7-18-8.2-20.4-18.6
		c-3-13.1,4.8-27.8,20.6-29.7c9.5-1.1,17.3,2.3,23.1,10c0.7,0.9,0.7,1.4-0.4,2.1c-10.4,7-20.7,14-31,21.1c-2.2,1.5-2.2-0.8-3-1.5
		c-1.2-1,0-1.4,0.7-1.8c9.1-6.2,18.2-12.4,27.4-18.5c1.1-0.8,1.1-1.2,0.2-2.2c-6.7-7.3-19.2-7.7-27.1-0.9
		c-11.2,9.7-8.9,28.1,4.2,34.6c11.7,5.9,26.4-1.4,28.9-14.3c0-0.1,0-0.3,0.1-0.4c0.7-0.9-0.3-2.5,0.7-3c0.8-0.4,2-0.1,3.1-0.2
		c0.2,0,0.4-0.1,0.5-0.1L408,49.4L408,49.4z"/>
	<path class="st1" d="M185.5,0c0,13.9,0,27.7-0.1,41.6c0,0.6,0.4,1.7-0.3,1.8c-1,0.3-2.2,0.2-3.3,0c-0.6-0.2-0.3-1.1-0.3-1.7
		c0-13.3,0-26.5,0-39.8c0-0.7-0.1-1.3-0.1-2h4.1V0z"/>
	<path class="st0" d="M226.8,30.6c0.9-1.8,1.5-3.3,2.5-4.6c4-4.6,9.2-5.3,14.7-4.4c6,1,9.9,4.7,11.8,10.5c0.6,1.9,0.8,3.8,0.8,5.8
		c0,9.8,0,19.5,0,29.3c0,1.5-0.3,2-1.9,2c-1.4,0-2-0.3-1.9-1.9c0.1-9.8,0.1-19.5,0-29.3c0-4.3-1.4-8.1-5-10.7
		c-3.7-2.6-7.7-3-11.8-1.3c-4.2,1.6-6.3,5-7.1,9.3c-0.3,1.7-0.3,3.4-0.3,5.1c0,9.1-0.1,18.2,0,27.3c0,1.7-0.9,1.5-1.9,1.5
		c-1.1,0-1.9,0.2-1.9-1.5c0.1-10,0.1-19.9,0-29.9c0-4.3-1.5-8.1-5.3-10.7c-7.4-5.1-17.8-0.3-18.7,8.6c-0.2,2.1-0.3,4.3-0.3,6.4
		c0,8.6,0,17.2,0,25.8c0,1.6-0.9,1.3-1.8,1.2c-0.8-0.1-2,0.7-2-1.1c0.1-10.4-0.2-20.8,0.1-31.2c0.2-6.3,2.9-11.5,9-14
		c5.9-2.4,11.7-2.2,16.9,1.9C224.8,26.1,225.9,28.1,226.8,30.6"/>
	<path class="st0" d="M302.9,59.6c1,3.5-0.4,5.4-3,7c-11.9,7.6-27.7,2-32.5-11.5c-3.7-10.3-1.1-21.6,6.5-28.3
		c11.9-10.5,31-5.3,35.9,9.8c1,3.1,1.5,6.3,1.5,9.5c0,7.1-0.1,14.3,0,21.4c0,1.8-0.9,1.5-2,1.6c-1.2,0.1-1.8-0.1-1.8-1.6
		c0.1-7,0.1-14,0-21c0-5.4-1.4-10.4-4.9-14.6c-7.8-9.3-20.6-9.2-28.2,0.3c-8.3,10.4-5.2,26.2,6.3,32.4c6.5,3.5,14.6,2.3,20.4-3
		C301.8,61,302.3,60.4,302.9,59.6"/>
	<path class="st0" d="M337.5,69.1c-4.5,0-9.1-0.1-13.6,0c-4.1,0.1-5.1-3.2-4.1-6.1c1-3.1,3.4-5.2,5.4-7.6c7.1-8.7,14.3-17.3,21.4-26
		c0.2-0.3,0.4-0.6,0.7-0.9c0.5-0.5,0.9-1.1,0.6-1.8c-0.3-0.8-1.1-0.6-1.8-0.6c-7.6,0-15.2-0.1-22.9,0c-1.6,0-1.9-0.4-1.9-1.9
		c0-1.3,0.1-2.1,1.8-2c8,0.1,16,0,24,0.1c5,0,6.9,3.4,4.2,7.7c-2.4,3.9-5.6,7.1-8.5,10.6c-5.9,7.3-11.9,14.5-17.9,21.7
		c-0.5,0.6-1.3,1.3-1,2.2c0.4,1,1.5,0.7,2.3,0.7c8.5,0,17.1,0.1,25.6,0c1.5,0,1.7,0.6,1.6,1.8c-0.1,1,0.4,2.1-1.5,2.1
		C347.1,69,342.3,69.1,337.5,69.1"/>
	<path class="st0" d="M93.3,52.7c0-4.5,0-9.1,0-13.6c0.1-9.6,7.9-17.3,17.5-17.8c11.4-0.6,20,8,19.8,19.2c-0.1,9-0.1,17.9,0,26.9
		c0,1.8-0.9,1.5-2,1.6c-1.2,0.1-1.8-0.1-1.8-1.6c0.1-8.9,0.1-17.7,0-26.6c-0.1-5.7-2.1-10.5-7.1-13.7C111,21.5,99,26.8,97.3,37
		c-0.3,1.6-0.4,3.2-0.4,4.8c0,8.5-0.1,17.1,0.1,25.6c0,1.8-0.9,1.5-2,1.6c-1.2,0.1-1.9,0-1.8-1.6C93.3,62.6,93.3,57.7,93.3,52.7
		L93.3,52.7z"/>
	<path class="st2" d="M162.8,70.1c-10.9,0-20.2-7.8-22.3-18.4c-0.1-0.3-0.1-0.6-0.1-0.9c-0.6-2.7,0.3-3.5,3-2.7
		c0.9,0.2,0.7,1,0.9,1.6c1.7,8.2,6.2,13.9,14.3,16.4c7.6,2.3,16.2-1.9,20.4-9.5c1.2-2.3,2.1-4.7,2.5-7.3c0.3-2.2,1.9-1,2.9-1.1
		c1.2-0.2,1,0.9,0.9,1.5c-1.3,9.2-7.2,17.2-16.6,19.7C166.6,69.8,164.6,70.2,162.8,70.1"/>
	<path class="st0" d="M177.3,31.7c-1.9-1.6-3.4-3.1-5.2-4.1c-8.8-5.4-20.2-2.1-25.4,7.3c-1.2,2.1-2.2,4.4-2.4,6.8
		c-0.1,1.7-0.8,1.9-2.3,2c-1.8,0.1-2.1-0.6-1.9-2.1c1.5-9.4,7.5-17.5,17.8-19.7c6.9-1.5,13.1,0.3,18.5,4.7
		C178.1,27.9,177,29.7,177.3,31.7"/>
	<path class="st0" d="M78.2,45.7c0,7.3-0.1,14.5,0.1,21.8c0,1.8-0.9,1.5-2,1.6c-1.2,0.1-1.8-0.1-1.8-1.6c0.1-14.5,0.1-29,0-43.5
		c0-1.6,0.6-1.7,1.9-1.7s1.9,0.2,1.9,1.8C78.1,31.2,78.2,38.5,78.2,45.7"/>
</g>
</svg>
